<svg width="854" height="570" xmlns="http://www.w3.org/2000/svg" xmlns:xlink="http://www.w3.org/1999/xlink" overflow="hidden"><defs><clipPath id="clip0"><rect x="213" y="75" width="854" height="570"/></clipPath><clipPath id="clip1"><rect x="213" y="75" width="853" height="569"/></clipPath><clipPath id="clip2"><rect x="287" y="132" width="757" height="439"/></clipPath><clipPath id="clip3"><rect x="213" y="75" width="853" height="569"/></clipPath><clipPath id="clip4"><rect x="213" y="75" width="853" height="569"/></clipPath><clipPath id="clip5"><rect x="213" y="75" width="853" height="569"/></clipPath><clipPath id="clip6"><rect x="213" y="75" width="853" height="569"/></clipPath><clipPath id="clip7"><rect x="213" y="75" width="853" height="569"/></clipPath><clipPath id="clip8"><rect x="213" y="75" width="853" height="569"/></clipPath><clipPath id="clip9"><rect x="213" y="75" width="853" height="569"/></clipPath><clipPath id="clip10"><rect x="213" y="75" width="853" height="569"/></clipPath><clipPath id="clip11"><rect x="213" y="75" width="853" height="569"/></clipPath><clipPath id="clip12"><rect x="213" y="75" width="853" height="569"/></clipPath><clipPath id="clip13"><rect x="213" y="75" width="853" height="569"/></clipPath><clipPath id="clip14"><rect x="213" y="75" width="853" height="569"/></clipPath><clipPath id="clip15"><rect x="213" y="75" width="853" height="569"/></clipPath><clipPath id="clip16"><rect x="213" y="75" width="853" height="569"/></clipPath><clipPath id="clip17"><rect x="213" y="75" width="853" height="569"/></clipPath><clipPath id="clip18"><rect x="213" y="75" width="853" height="569"/></clipPath><clipPath id="clip19"><rect x="213" y="75" width="853" height="569"/></clipPath></defs><g clip-path="url(#clip0)" transform="translate(-213 -75)"><g clip-path="url(#clip1)"><path d="M371.5 132.5 371.5 570.5M455.5 132.5 455.5 570.5M539.5 132.5 539.5 570.5M623.5 132.5 623.5 570.5M707.5 132.5 707.5 570.5M791.5 132.5 791.5 570.5M875.5 132.5 875.5 570.5M959.5 132.5 959.5 570.5M1043.5 132.5 1043.5 570.5" stroke="#D9D9D9" stroke-linejoin="round" stroke-miterlimit="10" fill="none"/></g><g clip-path="url(#clip2)"><path d="M977 524 287 524 287 472 977 472ZM724 378 287 378 287 326 724 326ZM624 231 287 231 287 180 624 180Z" fill="#4472C4"/></g><g clip-path="url(#clip3)"><path d="M0 0 0.000104987 438" stroke="#D9D9D9" stroke-linejoin="round" stroke-miterlimit="10" fill="none" fill-rule="evenodd" transform="matrix(1 0 0 -1 287.5 570.5)"/></g><g clip-path="url(#clip4)"><text fill="#595959" font-family="Calibri,Calibri_MSFontService,sans-serif" font-weight="400" font-size="16" transform="translate(283.155 596)">0</text></g><g clip-path="url(#clip5)"><text fill="#595959" font-family="Calibri,Calibri_MSFontService,sans-serif" font-weight="400" font-size="16" transform="translate(367.234 596)">5</text></g><g clip-path="url(#clip6)"><text fill="#595959" font-family="Calibri,Calibri_MSFontService,sans-serif" font-weight="400" font-size="16" transform="translate(447.27 596)">10</text></g><g clip-path="url(#clip7)"><text fill="#595959" font-family="Calibri,Calibri_MSFontService,sans-serif" font-weight="400" font-size="16" transform="translate(531.35 596)">15</text></g><g clip-path="url(#clip8)"><text fill="#595959" font-family="Calibri,Calibri_MSFontService,sans-serif" font-weight="400" font-size="16" transform="translate(615.429 596)">20</text></g><g clip-path="url(#clip9)"><text fill="#595959" font-family="Calibri,Calibri_MSFontService,sans-serif" font-weight="400" font-size="16" transform="translate(699.509 596)">25</text></g><g clip-path="url(#clip10)"><text fill="#595959" font-family="Calibri,Calibri_MSFontService,sans-serif" font-weight="400" font-size="16" transform="translate(783.588 596)">30</text></g><g clip-path="url(#clip11)"><text fill="#595959" font-family="Calibri,Calibri_MSFontService,sans-serif" font-weight="400" font-size="16" transform="translate(867.668 596)">35</text></g><g clip-path="url(#clip12)"><text fill="#595959" font-family="Calibri,Calibri_MSFontService,sans-serif" font-weight="400" font-size="16" transform="translate(951.747 596)">40</text></g><g clip-path="url(#clip13)"><text fill="#595959" font-family="Calibri,Calibri_MSFontService,sans-serif" font-weight="400" font-size="16" transform="translate(1035.83 596)">45</text></g><g clip-path="url(#clip14)"><text fill="#595959" font-family="Calibri,Calibri_MSFontService,sans-serif" font-weight="400" font-size="16" transform="translate(236.047 502)">React</text></g><g clip-path="url(#clip15)"><text fill="#595959" font-family="Calibri,Calibri_MSFontService,sans-serif" font-weight="400" font-size="16" transform="translate(222 356)">Angular</text></g><g clip-path="url(#clip16)"><text fill="#595959" font-family="Calibri,Calibri_MSFontService,sans-serif" font-weight="400" font-size="16" transform="translate(247.014 210)">Vue</text></g><g clip-path="url(#clip17)"><text fill="#595959" font-family="Calibri,Calibri_MSFontService,sans-serif" font-weight="400" font-size="25" transform="translate(317.863 110)">Most Commonly Used Frameworks (By Professional Developers)</text></g><g clip-path="url(#clip18)"><rect x="428" y="618" width="9" height="9" fill="#4472C4"/></g><g clip-path="url(#clip19)"><text fill="#595959" font-family="Calibri,Calibri_MSFontService,sans-serif" font-weight="400" font-size="16" transform="translate(441.119 627)">Most Commonly Used Frameworks (By Professional Developers)</text></g></g></svg>